<?xml version="1.0" encoding="UTF-8" standalone="no"?>
<svg width="980px" height="400px" viewBox="0 0 980 400" version="1.1" xmlns="http://www.w3.org/2000/svg" xmlns:xlink="http://www.w3.org/1999/xlink">
    <!-- Generator: Sketch 41.2 (35397) - http://www.bohemiancoding.com/sketch -->
    <title>banner</title>
    <desc>Created with Sketch.</desc>
    <defs>
        <polygon id="path-1" points="127.299363 0 254.598726 73.4963215 254.598726 220.488964 127.299363 293.985286 6.39488462e-14 220.488964 -1.77635684e-14 73.4963215"></polygon>
    </defs>
    <g id="Page-1" stroke="none" stroke-width="1" fill="none" fill-rule="evenodd">
        <g id="github-banner" transform="translate(-16.000000, -21.000000)">
            <polygon id="Polygon" stroke="#A3BE8C" points="506.299363 74 633.598726 147.496321 633.598726 294.488964 506.299363 367.985286 379 294.488964 379 147.496321"></polygon>
            <g id="ground" transform="translate(379.000000, 74.000000)">
                <mask id="mask-2" fill="white">
                    <use xlink:href="#path-1"></use>
                </mask>
                <g id="Mask"></g>
                <rect fill="#A3BE8C" mask="url(#mask-2)" x="-30" y="220" width="314" height="82"></rect>
            </g>
            <path d="M546.038154,205.967073 C545.192351,205.653473 544.57766,204.919073 544.421981,204.032673 C543.876302,200.936673 542.350006,193.463073 539.563833,188.143073 C536.755191,182.775073 525.348895,173.395873 520.497166,169.552673 C519.096055,168.442273 517.02408,169.082273 516.481611,170.783073 C515.815561,172.871073 515.345314,176.371873 515.899018,182.170273 C516.837907,192.000673 525.061611,201.829473 528.574821,205.623073 C529.457537,206.575073 529.475191,208.035873 528.619759,209.011873 L528.619759,209.011873 C527.844574,209.898273 526.562228,210.141473 525.517413,209.594273 C522.387784,207.952673 515.8605,204.714273 512.303956,204.271073 C508.761858,203.829473 493.7605,205.509473 486.177166,206.415073 C484.076302,206.666273 483.167907,209.224673 484.663709,210.715873 C488.875067,214.917473 498.429265,221.219873 518.152351,221.843873 C519.482845,221.885473 520.566179,222.933473 520.623956,224.258273 C520.760376,227.341473 520.341487,232.341473 516.199142,232.341473 C510.207907,232.341473 494.90803,228.640673 485.344203,229.355873 C473.361734,230.251873 457.185561,242.496673 453.5905,248.469473 C449.995438,254.442273 444.902969,263.103073 445.801734,274.749473 C446.7005,286.395873 449.096672,292.368673 449.096672,292.667873 C449.096672,292.967073 440.709265,294.759073 441.007784,299.237473 C441.307907,303.717473 442.805314,308.495073 448.796549,310.883873 C454.787784,313.272673 467.070376,308.792673 467.368895,307.599073 C467.667413,306.405473 472.761487,310.771873 480.848771,311.575073 C487.802969,312.264673 515.136672,311.768673 522.659018,311.615073 C523.851487,311.591073 524.860993,310.744673 525.104944,309.581473 C525.559142,307.408673 522.707166,303.688673 520.543709,303.493473 C520.543709,303.493473 507.510006,301.029473 506.311117,303.418273 C506.311117,303.418273 521.888648,295.354273 521.588524,293.264673 C521.288401,291.173473 526.082351,308.495073 528.778648,310.586273 C530.967784,312.283873 539.085561,312.112673 542.057907,311.987873 C542.820253,311.955873 543.523216,311.589473 543.982228,310.983073 C544.897043,309.773473 546.068648,307.621473 544.656302,305.808673 C543.433339,304.240673 540.68087,303.688673 538.599265,303.501473 C537.172475,303.373473 536.122845,302.112673 536.289759,300.693473 L538.254203,284.050273 C538.324821,283.447073 538.608895,282.891873 539.056672,282.480673 C541.72729,280.026273 551.32803,271.045473 553.642351,266.687073 L556.041734,262.168673 C556.235932,261.802273 556.338648,261.394273 556.338648,260.979873 L556.338648,253.847073 L556.338648,245.122273 C556.338648,244.243873 556.792845,243.431073 557.539142,242.965473 C559.357537,241.831073 562.803339,239.551073 564.726055,237.421473 C567.422351,234.435873 569.518401,232.344673 569.219882,231.448673 C569.060993,230.975073 569.078648,230.168673 569.130006,229.512673 C569.171734,228.978273 569.365932,228.459873 569.728648,228.066273 C570.198895,227.554273 570.657907,226.562273 569.248771,225.176673 C567.123833,223.085473 561.431117,215.919073 560.233833,213.231073 C559.26445,211.053473 549.668524,207.314273 546.038154,205.967073 L546.038154,205.967073 Z" id="rabbit" fill="#4F5B66"></path>
        </g>
    </g>
</svg>