<?xml version="1.0" encoding="UTF-8"?>
<svg width="980px" height="605px" viewBox="0 0 980 605" version="1.1" xmlns="http://www.w3.org/2000/svg" xmlns:xlink="http://www.w3.org/1999/xlink">
    <!-- Generator: Sketch 49 (51002) - http://www.bohemiancoding.com/sketch -->
    <title>banner</title>
    <desc>Created with Sketch.</desc>
    <defs>
        <polygon id="path-1" points="127.299363 0 254.598726 73.4963215 254.598726 220.488964 127.299363 293.985286 6.03961325e-14 220.488964 -2.13162821e-14 73.4963215"></polygon>
    </defs>
    <g id="Page-1" stroke="none" stroke-width="1" fill="none" fill-rule="evenodd">
        <g id="github-banner" transform="translate(-16.000000, -21.000000)">
            <g id="ground" transform="translate(379.000000, 175.000000)">
                <mask id="mask-2" fill="white">
                    <use xlink:href="#path-1"></use>
                </mask>
                <g id="Mask"></g>
                <rect fill="#F3F3F3" mask="url(#mask-2)" x="-30" y="220" width="314" height="82"></rect>
            </g>
            <path d="M506.5,182.039913 L382.5,253.522266 L382.5,396.477734 L506.5,467.960087 L630.5,396.477734 L630.5,253.522266 L506.5,182.039913 Z" id="Polygon" stroke="#343334" stroke-width="7"></path>
            <path d="M545.880833,309.951162 C545.036297,309.637697 544.422527,308.903613 544.267081,308.017595 C543.722219,304.922927 542.198209,297.452544 539.416209,292.134834 C536.611773,286.769144 525.222561,277.393981 520.378099,273.552435 C518.979087,272.442513 516.910215,273.082238 516.368558,274.782306 C515.703506,276.869407 515.233964,280.3687 515.786838,286.164605 C516.724321,295.990773 524.935707,305.815343 528.443655,309.60731 C529.325049,310.5589 529.342677,312.019071 528.488526,312.994651 L528.488526,312.994651 C527.714502,313.88067 526.434077,314.123765 525.390827,313.576801 C522.265885,311.935907 515.748377,308.698901 512.197161,308.255892 C508.660367,307.814482 493.681477,309.493759 486.109502,310.398969 C484.011784,310.650061 483.10475,313.20736 484.598312,314.697918 C488.803363,318.897709 498.34325,325.197397 518.036796,325.821128 C519.365297,325.86271 520.447008,326.910259 520.504699,328.234489 C520.640915,331.316362 520.222653,336.31421 516.086512,336.31421 C510.104251,336.31421 494.82729,332.615003 485.277787,333.329895 C473.313264,334.225509 457.161319,346.465039 453.571642,352.435268 C449.981965,358.405497 444.897123,367.062569 445.794542,378.703957 C446.691962,390.345344 449.084546,396.315573 449.084546,396.614644 C449.084546,396.913715 440.7097,398.704944 441.007772,403.181416 C441.307446,407.659488 442.80261,412.435032 448.784872,414.822803 C454.767133,417.210575 467.031329,412.732504 467.329401,411.539417 C467.627472,410.346331 472.713916,414.710852 480.789088,415.513706 C487.73287,416.203009 515.025634,415.707223 522.536713,415.553689 C523.727396,415.529699 524.73539,414.683663 524.978976,413.520964 C525.432493,411.349099 522.584789,407.6307 520.424573,407.435584 C520.424573,407.435584 507.41039,404.972645 506.213297,407.360417 C506.213297,407.360417 521.767497,399.299888 521.467823,397.211187 C521.168149,395.120887 525.954919,412.435032 528.647177,414.525332 C530.833034,416.222201 538.938654,416.051075 541.906547,415.926328 C542.667751,415.894342 543.369661,415.5281 543.827986,414.921961 C544.741431,413.712881 545.911281,411.561808 544.501051,409.749788 C543.279919,408.182463 540.531573,407.6307 538.453086,407.443581 C537.028432,407.315636 535.980375,406.055379 536.147038,404.63679 L538.108541,388.000753 C538.179052,387.397813 538.462701,386.842852 538.909808,386.431829 C541.576425,383.978485 551.162786,375.001551 553.473641,370.645027 L555.86943,366.128572 C556.063337,365.762329 556.165899,365.354505 556.165899,364.940283 L556.165899,357.810553 L556.165899,349.089509 C556.165899,348.211487 556.619416,347.399037 557.364595,346.933637 C559.180266,345.799725 562.620908,343.520707 564.540744,341.392023 C567.233002,338.407708 569.325912,336.317408 569.027841,335.421794 C568.86919,334.948398 568.886818,334.142345 568.938099,333.486627 C568.979765,332.952457 569.173671,332.434281 569.535844,332.04085 C570.005387,331.52907 570.463712,330.537497 569.056686,329.152494 C566.934931,327.062194 561.250741,319.898878 560.05525,317.212035 C559.087319,315.035373 549.505766,311.297782 545.880833,309.951162 L545.880833,309.951162 Z" id="rabbit" fill="#343334"></path>
        </g>
    </g>
</svg>