<?xml version="1.0" encoding="UTF-8" standalone="no"?>
<svg width="790px" height="400px" viewBox="0 0 790 400" version="1.1" xmlns="http://www.w3.org/2000/svg" xmlns:xlink="http://www.w3.org/1999/xlink" xmlns:sketch="http://www.bohemiancoding.com/sketch/ns">
    <!-- Generator: Sketch 3.4.2 (15855) - http://www.bohemiancoding.com/sketch -->
    <title>Oval 1</title>
    <desc>Created with Sketch.</desc>
    <defs>
        <circle id="path-1" cx="128" cy="128" r="128"></circle>
    </defs>
    <g id="Page-1" stroke="none" stroke-width="1" fill="none" fill-rule="evenodd" sketch:type="MSPage">
        <g id="Rectangle-1-Copy" sketch:type="MSLayerGroup" transform="translate(267.000000, 72.000000)">
            <mask id="mask-2" sketch:name="Mask" fill="white">
                <use xlink:href="#path-1"></use>
            </mask>
            <use id="Mask" fill="#F5F5F5" sketch:type="MSShapeGroup" xlink:href="#path-1"></use>
            <rect fill="#8FAA54" sketch:type="MSShapeGroup" mask="url(#mask-2)" x="-29" y="174" width="314" height="82"></rect>
            <path d="M168.038154,92.9670733 C167.192351,92.6534733 166.57766,91.9190733 166.421981,91.0326733 C165.876302,87.9366733 164.350006,80.4630733 161.563833,75.1430733 C158.755191,69.7750733 147.348895,60.3958733 142.497166,56.5526733 C141.096055,55.4422733 139.02408,56.0822733 138.481611,57.7830733 C137.815561,59.8710733 137.345314,63.3718733 137.899018,69.1702733 C138.837907,79.0006733 147.061611,88.8294733 150.574821,92.6230733 C151.457537,93.5750733 151.475191,95.0358733 150.619759,96.0118733 L150.619759,96.0118733 C149.844574,96.8982733 148.562228,97.1414733 147.517413,96.5942733 C144.387784,94.9526733 137.8605,91.7142733 134.303956,91.2710733 C130.761858,90.8294733 115.7605,92.5094733 108.177166,93.4150733 C106.076302,93.6662733 105.167907,96.2246733 106.663709,97.7158733 C110.875067,101.917473 120.429265,108.219873 140.152351,108.843873 C141.482845,108.885473 142.566179,109.933473 142.623956,111.258273 C142.760376,114.341473 142.341487,119.341473 138.199142,119.341473 C132.207907,119.341473 116.90803,115.640673 107.344203,116.355873 C95.3617342,117.251873 79.1855613,129.496673 75.5904996,135.469473 C71.9954379,141.442273 66.9029687,150.103073 67.8017342,161.749473 C68.7004996,173.395873 71.0966724,179.368673 71.0966724,179.667873 C71.0966724,179.967073 62.709265,181.759073 63.0077835,186.237473 C63.307907,190.717473 64.8053144,195.495073 70.796549,197.883873 C76.7877835,200.272673 89.0703761,195.792673 89.3688946,194.599073 C89.6674132,193.405473 94.7614872,197.771873 102.848771,198.575073 C109.802969,199.264673 137.136672,198.768673 144.659018,198.615073 C145.851487,198.591073 146.860993,197.744673 147.104944,196.581473 C147.559142,194.408673 144.707166,190.688673 142.543709,190.493473 C142.543709,190.493473 129.510006,188.029473 128.311117,190.418273 C128.311117,190.418273 143.888648,182.354273 143.588524,180.264673 C143.288401,178.173473 148.082351,195.495073 150.778648,197.586273 C152.967784,199.283873 161.085561,199.112673 164.057907,198.987873 C164.820253,198.955873 165.523216,198.589473 165.982228,197.983073 C166.897043,196.773473 168.068648,194.621473 166.656302,192.808673 C165.433339,191.240673 162.68087,190.688673 160.599265,190.501473 C159.172475,190.373473 158.122845,189.112673 158.289759,187.693473 L160.254203,171.050273 C160.324821,170.447073 160.608895,169.891873 161.056672,169.480673 C163.72729,167.026273 173.32803,158.045473 175.642351,153.687073 L178.041734,149.168673 C178.235932,148.802273 178.338648,148.394273 178.338648,147.979873 L178.338648,140.847073 L178.338648,132.122273 C178.338648,131.243873 178.792845,130.431073 179.539142,129.965473 C181.357537,128.831073 184.803339,126.551073 186.726055,124.421473 C189.422351,121.435873 191.518401,119.344673 191.219882,118.448673 C191.060993,117.975073 191.078648,117.168673 191.130006,116.512673 C191.171734,115.978273 191.365932,115.459873 191.728648,115.066273 C192.198895,114.554273 192.657907,113.562273 191.248771,112.176673 C189.123833,110.085473 183.431117,102.919073 182.233833,100.231073 C181.26445,98.0534733 171.668524,94.3142733 168.038154,92.9670733 L168.038154,92.9670733 Z" id="Shape-Copy" fill="#202020" sketch:type="MSShapeGroup" mask="url(#mask-2)"></path>
        </g>
    </g>
</svg>